<?xml version="1.0" encoding="UTF-8"?>
<svg id="Layer_1" data-name="Layer 1" xmlns="http://www.w3.org/2000/svg" version="1.1" viewBox="0 0 457.12 129.49">
  <defs>
    <style>
      .cls-1 {
        fill: #78b895;
      }

      .cls-1, .cls-2, .cls-3, .cls-4, .cls-5 {
        stroke-width: 0px;
      }

      .cls-2 {
        fill: #936327;
      }

      .cls-3 {
        fill: #85caa1;
      }

      .cls-4 {
        fill: #c7932c;
      }

      .cls-5 {
        fill: #808283;
      }
    </style>
  </defs>
  <polygon class="cls-2" points="46.41 113.2 62.03 97.58 46.41 81.96 46.41 113.2"/>
  <polygon class="cls-4" points="30.79 97.58 46.41 113.2 46.41 81.96 30.79 97.58"/>
  <polyline class="cls-2" points="29.99 65.54 45.61 81.16 29.99 96.78"/>
  <polygon class="cls-4" points="14.37 81.16 29.99 96.78 29.99 65.54 14.37 81.16"/>
  <polyline class="cls-2" points="47.2 81.16 62.82 96.78 78.44 81.16"/>
  <polyline class="cls-4" points="78.44 81.16 62.82 65.54 47.2 81.16"/>
  <polyline class="cls-2" points="30.79 64.74 46.41 80.37 62.03 64.74"/>
  <polyline class="cls-4" points="62.03 64.74 46.41 49.12 30.79 64.74"/>
  <polygon class="cls-2" points="63.62 97.58 79.24 113.2 94.86 97.58 63.62 97.58"/>
  <polyline class="cls-4" points="94.86 97.58 79.24 81.96 63.62 97.58"/>
  <polygon class="cls-2" points="14.37 48.33 29.99 63.95 45.61 48.33 14.37 48.33"/>
  <polygon class="cls-4" points="14.37 48.33 45.61 48.33 29.99 32.7 14.37 48.33"/>
  <polyline class="cls-2" points="79.24 49.12 94.86 64.74 79.24 80.37"/>
  <polyline class="cls-4" points="79.24 80.37 63.62 64.74 79.24 49.12"/>
  <polyline class="cls-2" points="62.82 32.7 78.44 48.33 62.82 63.95"/>
  <polyline class="cls-4" points="62.82 63.95 47.2 48.33 62.82 32.7"/>
  <polyline class="cls-1" points="95.66 65.54 111.28 81.16 95.66 96.78"/>
  <polyline class="cls-3" points="95.66 96.78 80.03 81.16 95.66 65.54"/>
  <polygon class="cls-1" points="112.07 113.2 127.69 97.58 112.07 81.96 112.07 113.2"/>
  <polygon class="cls-3" points="96.45 97.58 112.07 113.2 112.07 81.96 96.45 97.58"/>
  <polygon class="cls-2" points="46.41 16.29 46.41 47.53 62.03 31.91 46.41 16.29"/>
  <polygon class="cls-4" points="46.41 16.29 30.79 31.91 46.41 47.53 46.41 16.29"/>
  <polyline class="cls-1" points="80.03 48.33 95.66 63.95 111.28 48.33"/>
  <polyline class="cls-3" points="111.28 48.33 95.66 32.7 80.04 48.33"/>
  <polyline class="cls-1" points="63.62 31.91 79.24 47.53 94.86 31.91"/>
  <polygon class="cls-3" points="79.24 16.29 63.62 31.91 94.86 31.91 79.24 16.29"/>
  <polyline class="cls-1" points="96.45 64.74 112.07 80.37 127.69 64.74"/>
  <polyline class="cls-1" points="127.69 64.74 112.07 49.12 96.45 64.74"/>
  <polyline class="cls-1" points="112.86 81.16 128.49 96.78 144.11 81.16"/>
  <polyline class="cls-3" points="144.11 81.16 128.49 65.54 112.86 81.16"/>
  <polygon class="cls-1" points="112.07 16.29 112.07 47.53 127.69 31.91 112.07 16.29"/>
  <polygon class="cls-3" points="112.07 16.29 96.45 31.91 112.07 47.53 112.07 16.29"/>
  <polyline class="cls-1" points="128.49 32.7 144.11 48.33 128.49 63.95"/>
  <polyline class="cls-3" points="128.49 63.95 112.86 48.33 128.49 32.7"/>
  <polygon class="cls-5" points="204.95 48.61 204.95 79.63 203.19 79.63 203.19 50.49 191.2 66.22 179.17 50.49 179.17 79.63 177.41 79.63 177.41 48.61 179.96 48.61 191.2 63.3 202.41 48.61 204.95 48.61"/>
  <path class="cls-5" d="M228.46,64.25l-4.72-13.01-4.74,13.01h9.45ZM224.65,48.61l11.26,31.02h-1.85l-4.96-13.64h-10.72l-5.05,13.64h-1.86l11.39-31.02h1.8Z"/>
  <path class="cls-5" d="M244.67,50.38v16.72h5.27c2.3,0,4.26-.81,5.91-2.45,1.63-1.63,2.46-3.6,2.46-5.93s-.82-4.28-2.46-5.9c-1.64-1.63-3.61-2.44-5.91-2.44h-5.27ZM244.67,68.87v10.75h-1.76v-31.02h8.14c2.36.32,4.38,1.31,6.03,2.96,1.97,1.99,2.97,4.38,2.97,7.15s-.99,5.21-2.97,7.18c-1.97,1.98-4.36,2.97-7.15,2.97h-5.27Z"/>
  <path class="cls-2" d="M278.17,76.18c1.83,0,3.43-.68,4.79-2.05,1.37-1.37,2.05-3.07,2.05-5.1s-.68-3.74-2.05-5.11c-1.36-1.37-2.97-2.07-4.79-2.07h-5.75v14.33h5.75ZM272.43,51.48v6.93h6.35c.87-.09,1.53-.37,2-.85.64-.63.97-1.47.97-2.53s-.33-1.87-1.01-2.55c-.67-.67-1.43-1.01-2.28-1.01h-6.03ZM285.96,61.61c2.05,2.05,3.07,4.52,3.07,7.42s-1.06,5.36-3.18,7.48c-1.71,1.73-3.87,2.76-6.49,3.11h-10.91v-31.57h10.03c2.06,0,3.79.69,5.18,2.08,1.38,1.39,2.08,3.02,2.08,4.89s-.68,3.5-2.05,4.85c.49.12,1.24.7,2.26,1.73"/>
  <rect class="cls-2" x="297.34" y="48.06" width="3.97" height="31.57"/>
  <path class="cls-2" d="M326.26,51.08c-3.36,0-6.27,1.23-8.73,3.7-2.46,2.46-3.69,5.47-3.69,9s1.23,6.59,3.69,9.05,5.37,3.69,8.73,3.69,6.3-1.23,8.75-3.69c2.46-2.46,3.69-5.48,3.69-9.05s-1.23-6.54-3.69-9c-2.46-2.46-5.37-3.7-8.75-3.7M337.92,52.4c3.18,3.19,4.77,6.99,4.77,11.39s-1.59,8.24-4.77,11.42c-3.18,3.18-7.07,4.77-11.66,4.77s-8.46-1.59-11.64-4.77c-3.18-3.18-4.77-6.99-4.77-11.42s1.59-8.19,4.77-11.39c3.18-3.18,7.07-4.78,11.64-4.78s8.48,1.6,11.66,4.78"/>
  <polygon class="cls-2" points="379.32 48.06 379.32 79.63 375.36 79.63 375.36 53.95 364.98 67.58 354.57 53.95 354.57 79.63 350.61 79.63 350.61 48.06 354.84 48.06 364.98 61.33 375.09 48.06 379.32 48.06"/>
  <path class="cls-2" d="M402.17,63.08l-3.03-8.38-3.05,8.38h6.08ZM400.87,48.06l11.43,31.57h-4.12l-4.76-13.12h-8.58l-4.86,13.12h-4.14l11.58-31.57h3.44Z"/>
  <path class="cls-2" d="M429.32,63.02c-2.27-.74-4.09-1.81-5.46-3.18-1.37-1.38-2.06-3.04-2.06-4.99s.71-3.57,2.14-5.01c1.43-1.45,3.2-2.16,5.32-2.16s3.88.74,5.38,2.22c.77.76,1.38,1.83,1.81,3.2l-3.55,1.38c-.44-1.18-.84-1.95-1.19-2.3-.71-.73-1.53-1.1-2.46-1.1s-1.71.36-2.42,1.06c-.71.71-1.07,1.61-1.07,2.71s.36,2.01,1.1,2.77c.76.73,1.8,1.4,3.11,2.02,2.52.82,4.62,2.08,6.32,3.77,1.94,1.93,2.92,4.21,2.92,6.85s-.96,4.91-2.88,6.83c-1.93,1.92-4.28,2.88-7.08,2.88s-5.18-.99-7.13-2.96c-1.52-1.51-2.46-3.46-2.81-5.86l3.82-1.38c.23,2.3.89,3.97,1.95,5.03,1.17,1.17,2.56,1.76,4.17,1.76s3.04-.6,4.25-1.81c1.21-1.2,1.81-2.7,1.81-4.49s-.6-3.27-1.78-4.45c-1.21-1.19-2.61-2.12-4.21-2.79"/>
  <g>
    <path class="cls-2" d="M179.5,103.07h1.65v1.38h-3.25v-14.87h3.25v1.38h-1.65v12.11Z"/>
    <path class="cls-2" d="M185.73,90.7c2.12.01,3.78.61,4.96,1.8,1.26,1.27,1.89,2.8,1.89,4.57s-.64,3.33-1.93,4.62c-1.16,1.16-2.8,1.74-4.92,1.75h-2.69v-12.74h2.69ZM184.64,92.12v9.91h1.08c1.58,0,2.82-.44,3.73-1.31,1-1,1.5-2.22,1.5-3.66s-.5-2.65-1.5-3.66c-.9-.86-2.15-1.29-3.73-1.29h-1.08Z"/>
    <path class="cls-2" d="M201.47,90.7v1.39h-5.33v4.28h5.33v1.39h-5.33v4.28h5.33v1.39h-6.93v-12.74h6.93Z"/>
    <path class="cls-2" d="M214.69,101.71c-1.3,1.25-2.82,1.88-4.55,1.88-1.85,0-3.42-.64-4.7-1.92-1.28-1.28-1.92-2.81-1.92-4.6s.64-3.3,1.92-4.58c1.28-1.29,2.84-1.93,4.7-1.93,1.72,0,3.3.66,4.73,1.96l-1.12.99c-1.17-1.03-2.38-1.55-3.62-1.55-1.36,0-2.53.49-3.52,1.48-.99.99-1.48,2.2-1.48,3.62s.49,2.65,1.48,3.64c.99.99,2.16,1.48,3.52,1.48,1.16,0,2.15-.32,2.96-.97v-3.88h1.59v4.37Z"/>
    <path class="cls-2" d="M220.05,99.27h-1.5v4.17h-1.6v-12.74h3.65c1.06.14,1.95.57,2.66,1.29.83.83,1.25,1.83,1.25,2.98s-.43,2.17-1.28,3.03c-.57.57-1.07.91-1.5,1.02l2.86,4.42h-1.85l-2.68-4.17ZM218.55,92.1v5.77h1.58c.74,0,1.39-.28,1.95-.83s.83-1.24.83-2.07-.28-1.5-.83-2.05-1.2-.82-1.95-.82h-1.58Z"/>
    <path class="cls-2" d="M231.64,90.7l4.61,12.74h-1.66l-1.92-5.29h-3.46l-1.96,5.29h-1.67l4.67-12.74h1.39ZM232.17,96.77l-1.22-3.38-1.23,3.38h2.45Z"/>
    <path class="cls-2" d="M240.38,90.7c2.12.01,3.78.61,4.96,1.8,1.26,1.27,1.89,2.8,1.89,4.57s-.64,3.33-1.93,4.62c-1.16,1.16-2.8,1.74-4.92,1.75h-2.69v-12.74h2.69ZM239.29,92.12v9.91h1.08c1.58,0,2.82-.44,3.73-1.31,1-1,1.5-2.22,1.5-3.66s-.5-2.65-1.5-3.66c-.9-.86-2.15-1.29-3.73-1.29h-1.08Z"/>
    <path class="cls-2" d="M254.25,90.7l4.61,12.74h-1.66l-1.92-5.29h-3.46l-1.96,5.29h-1.67l4.67-12.74h1.39ZM254.77,96.77l-1.22-3.38-1.23,3.38h2.45Z"/>
    <path class="cls-2" d="M265.16,103.45c-1.25-.25-2.34-.85-3.28-1.79-1.28-1.27-1.92-2.81-1.92-4.59s.64-3.3,1.92-4.58,2.84-1.93,4.7-1.93c1.72,0,3.3.66,4.74,1.96l-1.12.99c-1.17-1.03-2.38-1.55-3.62-1.55-1.36,0-2.53.49-3.52,1.48s-1.48,2.2-1.48,3.62.49,2.65,1.48,3.64c.99.99,2.16,1.48,3.52,1.48,1.25,0,2.45-.52,3.62-1.55l1.12.99c-1.43,1.3-3.01,1.96-4.74,1.96-.2,0-.39,0-.58-.02l-.04.1c.34.02.62.26.84.72.09.2.14.39.14.58,0,.18-.04.34-.12.5-.19.38-.54.61-1.05.69-.16.02-.31.04-.46.04-.27,0-.51-.04-.72-.13-.08-.04-.16-.08-.25-.12l.49-.74c.09.05.19.07.31.07.15,0,.27-.04.38-.11.11-.07.16-.16.16-.26,0-.09-.05-.18-.16-.25-.11-.07-.23-.11-.38-.11-.07,0-.12,0-.18.02l.2-1.12Z"/>
    <path class="cls-2" d="M278.33,90.7l4.61,12.74h-1.66l-1.92-5.29h-3.46l-1.96,5.29h-1.67l4.67-12.74h1.39ZM277.01,89c-.01.13-.02.36-.02.68l-1.48-.32c.01-.42.04-.71.1-.87.14-.41.39-.7.76-.85.13-.06.27-.09.43-.09.35,0,.75.16,1.2.49.08.06.15.11.2.14,0-.13,0-.35,0-.66l1.5.29c-.02.42-.06.72-.12.88-.13.41-.39.7-.77.87-.14.05-.28.07-.42.07-.35,0-.75-.16-1.2-.49-.08-.06-.14-.11-.19-.14ZM278.86,96.77l-1.22-3.38-1.23,3.38h2.45Z"/>
    <path class="cls-2" d="M295.26,92.46c1.28,1.29,1.93,2.82,1.93,4.59s-.64,3.32-1.93,4.61-2.85,1.92-4.7,1.92-3.41-.64-4.7-1.92-1.92-2.82-1.92-4.61.64-3.31,1.92-4.59c1.28-1.29,2.85-1.93,4.7-1.93s3.42.64,4.7,1.93ZM290.56,91.93c-1.36,0-2.53.5-3.52,1.49s-1.49,2.21-1.49,3.63.5,2.66,1.49,3.65,2.17,1.49,3.52,1.49,2.54-.5,3.53-1.49,1.49-2.21,1.49-3.65-.5-2.64-1.49-3.63-2.17-1.49-3.53-1.49Z"/>
    <path class="cls-2" d="M300.29,90.96h-1.65v-1.38h3.25v14.87h-3.25v-1.38h1.65v-12.11Z"/>
  </g>
</svg>